<svg width="200" height="200" viewBox="20 15 160 150" xmlns="http://www.w3.org/2000/svg">
  <defs>
    <linearGradient id="gearGradient" x1="0%" y1="0%" x2="0%" y2="100%">
      <stop offset="0%" style="stop-color:#d9eef7;stop-opacity:1" />
      <stop offset="100%" style="stop-color:#4a8eb3;stop-opacity:1" />
    </linearGradient>
    <linearGradient id="leafGradient" x1="0%" y1="0%" x2="100%" y2="100%">
      <stop offset="0%" style="stop-color:#a8e063;stop-opacity:1" />
      <stop offset="100%" style="stop-color:#2e8b57;stop-opacity:1" />
    </linearGradient>
  </defs>
  <path d="M100 35 L110 35 L115 20 L130 23 L132 38 L142 42 L152 32 L163 43 L153 53 L157 63 L172 65 L175 80 L160 85 L160 95 L175 100 L172 115 L157 117 L153 127 L163 137 L152 148 L142 138 L132 142 L130 157 L115 160 L110 145 L90 145 L85 160 L70 157 L68 142 L58 138 L48 148 L37 137 L47 127 L43 117 L28 115 L25 100 L40 95 L40 85 L25 80 L28 65 L43 63 L47 53 L37 43 L48 32 L58 42 L68 38 L70 23 L85 20 L90 35 Z" fill="url(#gearGradient)" stroke="#2c5e7a" stroke-width="2" />
  <circle cx="100" cy="90" r="40" fill="white" stroke="#2c5e7a" stroke-width="2" />
  <g transform="translate(60, 45)">
    <path d="M15 65 Q 0 50, 10 20 Q 40 40, 45 60 Z" fill="url(#leafGradient)" stroke="#1e4d2b" stroke-width="1.5" />
    <path d="M40 75 Q 30 10, 85 0 Q 75 80, 40 85 Z" fill="url(#leafGradient)" stroke="#1e4d2b" stroke-width="1.5" />
    <path d="M40 75 Q 55 40, 85 0" fill="none" stroke="#1e4d2b" stroke-width="1" opacity="0.5" />
  </g>
</svg>
